<svg width="638" height="823" viewBox="0 0 638 823" fill="none" xmlns="http://www.w3.org/2000/svg">
<path d="M144.689 19.8836L80.0625 44.4844L203.066 367.615L267.692 343.014L144.689 19.8836Z" fill="black"/>
<path d="M347.766 164.6L323.165 99.9741L0.0348314 222.978L24.6356 287.604L347.766 164.6Z" fill="black"/>
<g opacity="0.74">
<path d="M531.83 204.791L490.58 193.161L528.64 0.850586L569.89 12.4806L531.83 204.791Z" fill="black"/>
<path d="M423.301 92.9707L430.911 54.5107L637.161 112.671L629.551 151.131L423.301 92.9707Z" fill="black"/>
</g>
<g opacity="0.61">
<path d="M269.59 288.471L271.9 195.301L318.41 196.391L316.1 289.561L409.12 291.731L407.97 338.311L314.95 336.141L312.64 429.301L266.13 428.211L268.44 335.051L175.41 332.871L176.57 286.291L269.59 288.471Z" stroke="black" stroke-width="8" stroke-linejoin="round"/>
</g>
<path d="M213.868 660.261L223.348 558.391L277.468 563.351L267.988 665.221L376.208 675.141L371.468 726.081L263.238 716.151L253.758 818.021L199.648 813.061L209.128 711.191L100.898 701.271L105.648 650.331L213.868 660.261Z" stroke="black" stroke-width="8" stroke-linejoin="round"/>
</svg>
